<svg width="595" height="570" viewBox="0 0 595 570" fill="none" xmlns="http://www.w3.org/2000/svg">
<g filter="url(#filter0_d)">
<rect x="3" y="1.67542" width="587" height="560.543" rx="50" fill="white"/>
<g filter="url(#filter1_d)">
<path d="M253.574 423.318V312.329C253.574 303.231 242.999 299.592 237.711 305.051L161.922 383.289C158.396 386.929 158.396 394.206 162.803 397.845C185.716 416.95 213.917 428.777 243.881 432.415C248.287 434.235 253.574 428.777 253.574 423.318Z" fill="#F4F849"/>
<path d="M135.484 165.859C116.977 189.512 105.52 218.625 101.995 249.556C101.114 255.015 105.521 260.474 111.689 260.474H219.204C228.017 260.474 231.543 249.556 226.254 244.098L150.465 165.86C146.059 161.311 139.009 161.311 135.484 165.859Z" fill="#F4F849"/>
<path d="M101.995 287.765C105.521 319.606 117.858 347.808 135.484 371.462C139.009 376.01 145.178 376.01 149.584 372.372L225.373 294.134C231.542 287.766 227.136 277.759 218.323 277.759H111.689C106.401 276.849 101.114 282.307 101.995 287.765Z" fill="#F4F849"/>
<path d="M421.017 249.556C417.491 217.716 405.154 189.513 387.528 165.859C384.003 161.311 377.834 161.311 373.428 164.949L297.639 243.187C291.47 249.555 295.876 259.563 304.689 259.563H412.205C416.611 260.473 421.898 255.014 421.017 249.556Z" fill="#F4F849"/>
<path d="M253.574 224.993V114.004C253.574 108.546 249.168 103.997 242.999 103.997C212.154 107.636 184.835 120.372 161.921 138.567C157.515 142.206 157.515 148.574 161.04 153.122L236.829 231.361C242.999 237.729 253.574 234.09 253.574 224.993Z" fill="#F4F849"/>
<path d="M269.438 114.004V224.993C269.438 234.09 280.013 237.729 285.301 232.27L361.09 154.032C364.615 150.393 364.615 143.115 360.209 139.477C337.296 120.372 309.095 108.545 279.131 104.906C274.725 103.087 269.438 107.636 269.438 114.004Z" fill="#F4F849"/>
<path d="M387.528 371.462C406.035 347.809 417.492 318.697 421.017 287.765C421.898 282.307 417.491 276.848 411.323 276.848H303.807C294.995 276.848 291.469 287.765 296.757 293.223L372.547 371.461C376.953 376.01 384.003 376.01 387.528 371.462Z" fill="#F4F849"/>
<path d="M280.012 433.325C310.857 429.686 338.176 416.95 361.09 398.755C365.496 395.115 365.496 388.747 361.971 384.199L286.182 305.961C280.013 299.593 270.319 304.141 270.319 313.239V424.228C269.438 428.777 274.725 434.235 280.012 433.325Z" fill="#F4F849"/>
<path d="M261.506 50.3215C144.296 50.3215 50 147.664 50 268.661C50 271.391 50 274.119 50 276.849C54.406 393.297 146.94 487 261.506 487C376.072 487 468.606 393.297 473.012 276.849C473.012 274.119 473.012 271.391 473.012 268.661C473.012 147.664 378.716 50.3215 261.506 50.3215ZM261.506 457.888C162.803 457.888 82.6078 376.92 78.201 276.848C78.201 274.118 78.201 271.39 78.201 268.66C78.201 164.04 160.16 79.4328 261.506 79.4328C362.853 79.4328 444.812 164.04 444.812 268.66C444.812 271.39 444.812 274.118 444.812 276.848C440.405 377.83 360.209 457.888 261.506 457.888Z" fill="#F4F849"/>
</g>
<g filter="url(#filter2_b)">
<rect width="394" height="518.218" transform="translate(150 25.3215)" fill="url(#paint0_linear)" fill-opacity="0.01"/>
</g>
<g filter="url(#filter3_d)">
<path d="M549.189 401.645V151.544H451.47V126.488H322.531V151.543H224.812V401.645H214V416.874H224.812H362.347H411.654H549.189H560V401.645H549.189ZM347.595 401.645H239.565V166.773H347.595V401.645ZM411.654 401.645H362.347V375.235H411.654V401.645ZM411.654 156.292H394.699V180.521H411.654V195.369H394.699V219.599H411.654V234.45H394.699V258.678H411.654V273.527H394.699V297.756H411.654V312.606H394.699V336.832H411.654V360.957H362.347V336.832H379.301V312.606H362.347V297.756H379.301V273.527H362.347V258.678H379.301V234.45H362.347V219.599H379.301V195.369H362.347V180.521H379.301V156.292H362.347V151.544H336.361V140.765H437.639V151.544H411.653V156.292H411.654ZM534.435 401.645H426.406V166.773H534.435V401.645Z" fill="#699B4B"/>
<path d="M472.21 183.336H440.715V209.179H472.21V183.336Z" fill="#699B4B"/>
<path d="M520.128 183.336H488.633V209.179H520.128V183.336Z" fill="#699B4B"/>
<path d="M472.21 225.018H440.715V250.86H472.21V225.018Z" fill="#699B4B"/>
<path d="M520.128 225.018H488.633V250.86H520.128V225.018Z" fill="#699B4B"/>
<path d="M472.21 266.702H440.715V292.546H472.21V266.702Z" fill="#699B4B"/>
<path d="M520.128 266.702H488.633V292.546H520.128V266.702Z" fill="#699B4B"/>
<path d="M472.21 308.386H440.715V334.23H472.21V308.386Z" fill="#699B4B"/>
<path d="M520.128 308.386H488.633V334.23H520.128V308.386Z" fill="#699B4B"/>
<path d="M472.21 350.069H440.715V375.913H472.21V350.069Z" fill="#699B4B"/>
<path d="M520.128 350.069H488.633V375.913H520.128V350.069Z" fill="#699B4B"/>
<path d="M285.369 183.336H253.874V209.179H285.369V183.336Z" fill="#699B4B"/>
<path d="M333.286 183.336H301.791V209.179H333.286V183.336Z" fill="#699B4B"/>
<path d="M285.369 225.018H253.874V250.86H285.369V225.018Z" fill="#699B4B"/>
<path d="M333.286 225.018H301.791V250.86H333.286V225.018Z" fill="#699B4B"/>
<path d="M285.369 266.702H253.874V292.546H285.369V266.702Z" fill="#699B4B"/>
<path d="M333.286 266.702H301.791V292.546H333.286V266.702Z" fill="#699B4B"/>
<path d="M285.369 308.386H253.874V334.23H285.369V308.386Z" fill="#699B4B"/>
<path d="M333.286 308.386H301.791V334.23H333.286V308.386Z" fill="#699B4B"/>
<path d="M285.369 350.069H253.874V375.913H285.369V350.069Z" fill="#699B4B"/>
<path d="M333.286 350.069H301.791V375.913H333.286V350.069Z" fill="#699B4B"/>
</g>
</g>
<defs>
<filter id="filter0_d" x="0" y="0" width="595" height="570" filterUnits="userSpaceOnUse" color-interpolation-filters="sRGB">
<feFlood flood-opacity="0" result="BackgroundImageFix"/>
<feColorMatrix in="SourceAlpha" type="matrix" values="0 0 0 0 0 0 0 0 0 0 0 0 0 0 0 0 0 0 127 0"/>
<feOffset dx="1" dy="3"/>
<feGaussianBlur stdDeviation="2"/>
<feColorMatrix type="matrix" values="0 0 0 0 0 0 0 0 0 0 0 0 0 0 0 0 0 0 0.25 0"/>
<feBlend mode="normal" in2="BackgroundImageFix" result="effect1_dropShadow"/>
<feBlend mode="normal" in="SourceGraphic" in2="effect1_dropShadow" result="shape"/>
</filter>
<filter id="filter1_d" x="46" y="50.3215" width="431.012" height="444.678" filterUnits="userSpaceOnUse" color-interpolation-filters="sRGB">
<feFlood flood-opacity="0" result="BackgroundImageFix"/>
<feColorMatrix in="SourceAlpha" type="matrix" values="0 0 0 0 0 0 0 0 0 0 0 0 0 0 0 0 0 0 127 0"/>
<feOffset dy="4"/>
<feGaussianBlur stdDeviation="2"/>
<feColorMatrix type="matrix" values="0 0 0 0 0 0 0 0 0 0 0 0 0 0 0 0 0 0 0.25 0"/>
<feBlend mode="normal" in2="BackgroundImageFix" result="effect1_dropShadow"/>
<feBlend mode="normal" in="SourceGraphic" in2="effect1_dropShadow" result="shape"/>
</filter>
<filter id="filter2_b" x="142" y="17.3215" width="410" height="534.219" filterUnits="userSpaceOnUse" color-interpolation-filters="sRGB">
<feFlood flood-opacity="0" result="BackgroundImageFix"/>
<feGaussianBlur in="BackgroundImage" stdDeviation="4"/>
<feComposite in2="SourceAlpha" operator="in" result="effect1_backgroundBlur"/>
<feBlend mode="normal" in="SourceGraphic" in2="effect1_backgroundBlur" result="shape"/>
</filter>
<filter id="filter3_d" x="210" y="126.488" width="354" height="298.387" filterUnits="userSpaceOnUse" color-interpolation-filters="sRGB">
<feFlood flood-opacity="0" result="BackgroundImageFix"/>
<feColorMatrix in="SourceAlpha" type="matrix" values="0 0 0 0 0 0 0 0 0 0 0 0 0 0 0 0 0 0 127 0"/>
<feOffset dy="4"/>
<feGaussianBlur stdDeviation="2"/>
<feColorMatrix type="matrix" values="0 0 0 0 0 0 0 0 0 0 0 0 0 0 0 0 0 0 0.25 0"/>
<feBlend mode="normal" in2="BackgroundImageFix" result="effect1_dropShadow"/>
<feBlend mode="normal" in="SourceGraphic" in2="effect1_dropShadow" result="shape"/>
</filter>
<linearGradient id="paint0_linear" x1="394" y1="259.109" x2="-2.02408e-05" y2="259.109" gradientUnits="userSpaceOnUse">
<stop stop-color="white"/>
<stop offset="1" stop-color="white" stop-opacity="0"/>
</linearGradient>
</defs>
</svg>
